<?xml version="1.0" encoding="utf-8"?>
<svg contentScriptType="text/ecmascript" xmlns:xlink="http://www.w3.org/1999/xlink" zoomAndPan="magnify" contentStyleType="text/css" viewBox="50.87599999999992 -5.0 990.0000000000005 694.0000000000001" xmlns:cacoo="http://cacoo.com/" preserveAspectRatio="xMidYMin meet" xmlns="http://www.w3.org/2000/svg" version="1.1"><defs><marker refX="0.0" refY="7.0" markerUnits="userSpaceOnUse" orient="auto" id="id2" markerHeight="14.0" viewBox="0 0 14.0 14.0" preserveAspectRatio="xMidYMid meet" markerWidth="14.0" overflow="visible"><path fill="none" d="M14.0 0 L0 7.0 L14.0 14.0" stroke-width="1.0" stroke-linejoin="round" stroke-linecap="round" stroke="#cccccc"/></marker><marker refX="14.0" refY="7.0" markerUnits="userSpaceOnUse" orient="auto" id="id3" markerHeight="14.0" viewBox="0 0 14.0 14.0" preserveAspectRatio="xMidYMid meet" markerWidth="14.0" overflow="visible"><path fill="none" d="M0 0 L14.0 7.0 L0 14.0" stroke-width="1.0" stroke-linejoin="round" stroke-linecap="round" stroke="#cccccc"/></marker><marker refX="14.0" refY="7.0" markerUnits="userSpaceOnUse" orient="auto" id="id16" markerHeight="14.0" viewBox="0 0 14.0 14.0" preserveAspectRatio="xMidYMid meet" markerWidth="14.0" overflow="visible"><path fill="#999999" d="M7.0 3.5 L14.0 7.0 L7.0 10.5z" stroke-width="4.0" stroke-linejoin="round" stroke-linecap="round" stroke="#999999"/></marker><linearGradient x1="0%" xmlns:xlink="http://www.w3.org/1999/xlink" y1="0%" x2="0%" y2="100%" xlink:type="simple" xlink:actuate="onLoad" id="id20" xlink:show="other"><stop stop-opacity="1.0" stop-color="#ffffff" offset="0%"/><stop stop-opacity="1.0" stop-color="#cccccc" offset="100%"/></linearGradient><linearGradient x1="0%" xmlns:xlink="http://www.w3.org/1999/xlink" y1="0%" x2="0%" y2="100%" xlink:type="simple" xlink:actuate="onLoad" id="id27" xlink:show="other"><stop stop-opacity="1.0" stop-color="#ffffff" offset="0%"/><stop stop-opacity="1.0" stop-color="#cccccc" offset="100%"/></linearGradient><linearGradient x1="0%" xmlns:xlink="http://www.w3.org/1999/xlink" y1="0%" x2="0%" y2="100%" xlink:type="simple" xlink:actuate="onLoad" id="id29" xlink:show="other"><stop stop-opacity="1.0" stop-color="#ffffff" offset="0%"/><stop stop-opacity="1.0" stop-color="#cccccc" offset="100%"/></linearGradient><linearGradient x1="0%" xmlns:xlink="http://www.w3.org/1999/xlink" y1="0%" x2="0%" y2="100%" xlink:type="simple" xlink:actuate="onLoad" id="id33" xlink:show="other"><stop stop-opacity="1.0" stop-color="#ffffff" offset="0%"/><stop stop-opacity="1.0" stop-color="#cccccc" offset="100%"/></linearGradient><linearGradient x1="0%" xmlns:xlink="http://www.w3.org/1999/xlink" y1="0%" x2="0%" y2="100%" xlink:type="simple" xlink:actuate="onLoad" id="id37" xlink:show="other"><stop stop-opacity="1.0" stop-color="#ffffff" offset="0%"/><stop stop-opacity="1.0" stop-color="#cccccc" offset="100%"/></linearGradient><linearGradient x1="0%" xmlns:xlink="http://www.w3.org/1999/xlink" y1="0%" x2="0%" y2="100%" xlink:type="simple" xlink:actuate="onLoad" id="id38" xlink:show="other"><stop stop-opacity="1.0" stop-color="#ffffff" offset="0%"/><stop stop-opacity="1.0" stop-color="#cccccc" offset="100%"/></linearGradient><linearGradient x1="0%" xmlns:xlink="http://www.w3.org/1999/xlink" y1="0%" x2="0%" y2="100%" xlink:type="simple" xlink:actuate="onLoad" id="id39" xlink:show="other"><stop stop-opacity="1.0" stop-color="#666666" offset="0%"/><stop stop-opacity="1.0" stop-color="#333333" offset="100%"/></linearGradient><linearGradient x1="0%" xmlns:xlink="http://www.w3.org/1999/xlink" y1="0%" x2="0%" y2="100%" xlink:type="simple" xlink:actuate="onLoad" id="id40" xlink:show="other"><stop stop-opacity="1.0" stop-color="#666666" offset="0%"/><stop stop-opacity="1.0" stop-color="#333333" offset="100%"/></linearGradient><linearGradient x1="0%" xmlns:xlink="http://www.w3.org/1999/xlink" y1="0%" x2="0%" y2="100%" xlink:type="simple" xlink:actuate="onLoad" id="id42" xlink:show="other"><stop stop-opacity="1.0" stop-color="#ffffff" offset="0%"/><stop stop-opacity="1.0" stop-color="#cccccc" offset="100%"/></linearGradient><linearGradient x1="0%" xmlns:xlink="http://www.w3.org/1999/xlink" y1="0%" x2="0%" y2="100%" xlink:type="simple" xlink:actuate="onLoad" id="id43" xlink:show="other"><stop stop-opacity="1.0" stop-color="#ffffff" offset="0%"/><stop stop-opacity="1.0" stop-color="#cccccc" offset="100%"/></linearGradient><linearGradient x1="0%" xmlns:xlink="http://www.w3.org/1999/xlink" y1="0%" x2="0%" y2="100%" xlink:type="simple" xlink:actuate="onLoad" id="id44" xlink:show="other"><stop stop-opacity="1.0" stop-color="#666666" offset="0%"/><stop stop-opacity="1.0" stop-color="#333333" offset="100%"/></linearGradient><linearGradient x1="0%" xmlns:xlink="http://www.w3.org/1999/xlink" y1="0%" x2="0%" y2="100%" xlink:type="simple" xlink:actuate="onLoad" id="id45" xlink:show="other"><stop stop-opacity="1.0" stop-color="#666666" offset="0%"/><stop stop-opacity="1.0" stop-color="#333333" offset="100%"/></linearGradient></defs><g><g transform="translate(65.87599999999992 43.0)"><path fill="#cccccc" fill-opacity="1.0" d="M959.9999999999972 42.0 Q959.9999999999972 47.0 954.9999999999972 47.0 L5.0 47.0 Q0.0 47.0 0.0 42.0 L0.0 5.0 Q0.0 0.0 5.0 0.0 L954.9999999999972 0.0 Q959.9999999999972 0.0 959.9999999999972 5.0 L959.9999999999972 42.0 L959.9999999999972 42.0z" stroke-width="2.0" stroke-linejoin="round" stroke="#999999"/><g transform="translate(1.0 1.0)"><defs><clipPath id="id0"><path d="M0 0 L957.9999999999975 0 L957.9999999999975 45.0 L0 45.0z"/></clipPath></defs><text font-size="12" clip-path="url(#id0)" text-decoration="none" fill="#000000" font-family="Arial,Arial" font-style="normal" font-weight="normal"/></g></g><g transform="translate(127.0 48.0)"><path fill="#eeeeee" fill-opacity="1.0" d="M112.99999999999996 24.399999999999974 Q112.99999999999996 29.399999999999974 107.99999999999996 29.399999999999974 L5.0 29.399999999999974 Q0.0 29.399999999999974 0.0 24.399999999999974 L0.0 5.0 Q0.0 0.0 5.0 0.0 L107.99999999999996 0.0 Q112.99999999999996 0.0 112.99999999999996 5.0 L112.99999999999996 24.399999999999974 L112.99999999999996 24.399999999999974z" stroke-width="2.0" stroke-linejoin="round" stroke="#999999"/><g transform="translate(1.0 1.0)"><defs><clipPath id="id1"><path d="M0 0 L111.0 0 L111.0 27.399999999999977 L0 27.399999999999977z"/></clipPath></defs><text font-size="12" clip-path="url(#id1)" text-decoration="none" fill="#999999" font-family="Arial,Arial" font-style="normal" font-weight="normal"><tspan x="2.0" xml:space="preserve" y="14.0" textLength="106.0">Multi screen resol...</tspan></text></g></g><g transform="translate(65.87599999999992 10.0)"><path fill="none" d="M0.0 10.0 L0.0 30.0" stroke-width="1.0" stroke-linejoin="round" stroke="#cccccc"/><path fill="none" d="M960.0 10.0 L960.0 30.0" stroke-width="1.0" stroke-linejoin="round" stroke="#cccccc"/><path fill="none" stroke-linejoin="round" d="M0.0 20.0 L960.0 20.0" stroke="#cccccc" marker-start="url(#id2)" stroke-width="1.0" marker-end="url(#id3)"/><g transform="translate(0.0 0.0)"><defs><clipPath id="id4"><path d="M0 0 L960.0 0 L960.0 20.0 L0 20.0z"/></clipPath></defs><text font-size="12" clip-path="url(#id4)" text-decoration="none" fill="#cccccc" font-family="Arial,Arial" font-style="normal" font-weight="normal"><tspan x="463.0" xml:space="preserve" y="14.5" textLength="33.0">960px</tspan></text></g></g><g transform="translate(65.87599999999992 109.00000000000001)"><path fill="#ffffff" fill-opacity="1.0" d="M959.9999999999973 565.0000000000001 L0.0 565.0000000000001 L0.0 0.0 L959.9999999999973 0.0 L959.9999999999973 565.0000000000001z" stroke-width="2.0" stroke-linejoin="round" stroke="#999999"/><g transform="translate(1.0 1.0)"><defs><clipPath id="id5"><path d="M0 0 L957.9999999999975 0 L957.9999999999975 563.0000000000008 L0 563.0000000000008z"/></clipPath></defs><text font-size="12" clip-path="url(#id5)" text-decoration="none" fill="#000000" font-family="Arial,Arial" font-style="normal" font-weight="normal"/></g></g><g transform="translate(978.4041980742782 47.10000000000001)"><path fill="#eeeeee" fill-opacity="1.0" d="M33.9999999999994 14.399999999999988 Q33.9999999999994 19.399999999999988 28.999999999999403 19.399999999999988 L5.0 19.399999999999988 Q0.0 19.399999999999988 0.0 14.399999999999988 L0.0 5.0 Q0.0 0.0 5.0 0.0 L28.999999999999403 0.0 Q33.9999999999994 0.0 33.9999999999994 5.0 L33.9999999999994 14.399999999999988 L33.9999999999994 14.399999999999988z" stroke-width="2.0" stroke-linejoin="round" stroke="#999999"/><g transform="translate(1.0 1.0)"><defs><clipPath id="id6"><path d="M0 0 L31.99999999999943 0 L31.99999999999943 17.39999999999999 L0 17.39999999999999z"/></clipPath></defs><text font-size="14" clip-path="url(#id6)" text-decoration="none" fill="#999999" font-family="Arial,Arial" font-style="normal" font-weight="bold"><tspan x="12.0" xml:space="preserve" y="13.699999999999996" textLength="8.0">+</tspan></text></g></g><g transform="translate(75.85199999999983 52.7)"><path fill="#999999" fill-opacity="1.0" d="M10.0 4.999999999999998 Q10.0 7.070968599999998 8.535599999999999 8.53544999999999 Q7.071130000000002 9.999999999999996 5.0 9.999999999999996 Q2.9289500000000017 9.999999999999996 1.4644752599999997 8.535524799999997 Q0.0 7.07105 0.0 4.999999999999998 Q0.0 2.928950000000001 1.4644750599999998 1.4644752599999993 Q2.9289500000000017 0.0 5.0 0.0 Q7.071165399999999 0.0 8.535599999999999 1.4644750599999994 Q10.0 2.9289156 10.0 4.999999999999998 L10.0 4.999999999999998z" stroke="none"/><g transform="translate(1.3843999862670895 1.592200088500976)"><defs><clipPath id="id7"><path d="M0 0 L7.231999969482429 0 L7.231999969482429 6.7695999145507795 L0 6.7695999145507795z"/></clipPath></defs><text font-size="12" clip-path="url(#id7)" text-decoration="none" fill="#000000" font-family="Arial,Arial" font-style="normal" font-weight="normal"/></g></g><g transform="translate(89.02513496524612 52.699999999999996)"><path fill="#999999" fill-opacity="1.0" d="M10.0 4.999999999999998 Q10.0 7.070968599999998 8.535599999999999 8.53544999999999 Q7.071130000000002 9.999999999999996 5.0 9.999999999999996 Q2.9289500000000017 9.999999999999996 1.4644752599999997 8.535524799999997 Q0.0 7.07105 0.0 4.999999999999998 Q0.0 2.928950000000001 1.4644750599999998 1.4644752599999993 Q2.9289500000000017 0.0 5.0 0.0 Q7.071165399999999 0.0 8.535599999999999 1.4644750599999994 Q10.0 2.9289156 10.0 4.999999999999998 L10.0 4.999999999999998z" stroke="none"/><g transform="translate(1.3843999862670895 1.592200088500976)"><defs><clipPath id="id8"><path d="M0 0 L7.231999969482429 0 L7.231999969482429 6.7695999145507795 L0 6.7695999145507795z"/></clipPath></defs><text font-size="12" clip-path="url(#id8)" text-decoration="none" fill="#000000" font-family="Arial,Arial" font-style="normal" font-weight="normal"/></g></g><g transform="translate(102.19826993049242 52.69999999999999)"><path fill="#999999" fill-opacity="1.0" d="M10.0 4.999999999999998 Q10.0 7.070968599999998 8.535599999999999 8.53544999999999 Q7.071130000000002 9.999999999999996 5.0 9.999999999999996 Q2.9289500000000017 9.999999999999996 1.4644752599999997 8.535524799999997 Q0.0 7.07105 0.0 4.999999999999998 Q0.0 2.928950000000001 1.4644750599999998 1.4644752599999993 Q2.9289500000000017 0.0 5.0 0.0 Q7.071165399999999 0.0 8.535599999999999 1.4644750599999994 Q10.0 2.9289156 10.0 4.999999999999998 L10.0 4.999999999999998z" stroke="none"/><g transform="translate(1.3843999862670895 1.592200088500976)"><defs><clipPath id="id9"><path d="M0 0 L7.231999969482429 0 L7.231999969482429 6.7695999145507795 L0 6.7695999145507795z"/></clipPath></defs><text font-size="12" clip-path="url(#id9)" text-decoration="none" fill="#000000" font-family="Arial,Arial" font-style="normal" font-weight="normal"/></g></g><g transform="translate(65.87599999999992 71.00000000000001)"><g transform="translate(0.0 0.0)"><path fill="#eeeeee" fill-opacity="1.0" d="M960.0000000000005 38.000000000000036 L0.0 38.000000000000036 L0.0 0.0 L960.0000000000005 0.0 L960.0000000000005 38.000000000000036z" stroke-width="2.0" stroke-linejoin="round" stroke="#999999"/><g transform="translate(1.0 1.0)"><defs><clipPath id="id10"><path d="M0 0 L958.0 0 L958.0 36.0 L0 36.0z"/></clipPath></defs><text font-size="12" clip-path="url(#id10)" text-decoration="none" fill="#000000" font-family="Arial,Arial" font-style="normal" font-weight="normal"/></g></g><g transform="translate(10.71113496524623 10.826865034753709) rotate(270.0 9.437999999999974 8.173134965246291)"><path fill="#999999" fill-opacity="1.0" d="M9.437809851918981 0.0 L14.156144333635488 8.172944817165295 L18.875619703837963 16.346269930492575 L9.437809851918981 16.346269930492575 L0.0 16.346269930492575 L4.719095074040482 8.172945197461454 L9.437809851918981 0.0 L9.437809851918981 0.0z" stroke="none"/><g transform="translate(3.7759605546053745 7.3766044102539245)"><defs><clipPath id="id11"><path d="M0 0 L11.324078977832082 0 L11.324078977832082 8.757079884450405 L0 8.757079884450405z"/></clipPath></defs><text font-size="12" clip-path="url(#id11)" text-decoration="none" fill="#000000" font-family="Arial,Arial" font-style="normal" font-weight="normal"/></g></g><g transform="translate(41.61113496524624 10.82686503475368) rotate(90.0 9.437999999999974 8.173134965246291)"><path fill="#999999" fill-opacity="1.0" d="M9.437809851918981 0.0 L14.156144333635488 8.172944817165295 L18.875619703837963 16.346269930492575 L9.437809851918981 16.346269930492575 L0.0 16.346269930492575 L4.719095074040482 8.172945197461454 L9.437809851918981 0.0 L9.437809851918981 0.0z" stroke="none"/><g transform="translate(3.7759605546053745 7.3766044102539245)"><defs><clipPath id="id12"><path d="M0 0 L11.324078977832082 0 L11.324078977832082 8.757079884450405 L0 8.757079884450405z"/></clipPath></defs><text font-size="12" clip-path="url(#id12)" text-decoration="none" fill="#000000" font-family="Arial,Arial" font-style="normal" font-weight="normal"/></g></g><g transform="translate(94.07152682255847 9.561999999999998)"><path fill="#ffffff" fill-opacity="1.0" d="M852.4566712517199 18.87599999999997 L0.0 18.87599999999997 L0.0 0.0 L852.4566712517199 0.0 L852.4566712517199 18.87599999999997z" stroke-width="2.0" stroke-linejoin="round" stroke="#999999"/><g transform="translate(1.0 1.0)"><defs><clipPath id="id13"><path d="M0 0 L850.4566712517192 0 L850.4566712517192 16.875999999999948 L0 16.875999999999948z"/></clipPath></defs><text font-size="12" clip-path="url(#id13)" text-decoration="none" fill="#999999" font-family="Arial,Arial" font-style="normal" font-weight="normal"/></g></g><g transform="translate(118.41024425944408 9.999999999999986)"><defs><clipPath id="id14"><path d="M0 0 L828.1179538148344 0 L828.1179538148344 18.0 L0 18.0z"/></clipPath></defs><text font-size="12" clip-path="url(#id14)" text-decoration="none" fill="#999999" font-family="Arial,Arial" font-style="normal" font-weight="normal"><tspan x="2.0" xml:space="preserve" y="13.5" textLength="82.0">http://localhost/</tspan></text></g><g transform="translate(99.12400000000008 11.999999999999986)"><path fill="#999999" fill-opacity="1.0" d="M14.0 7.0 Q14.0 9.89935604 11.949839999999998 11.94962999999999 Q9.899582000000004 14.0 7.0 14.0 Q4.100530000000003 14.0 2.0502653639999995 11.94973472 Q0.0 9.899470000000003 0.0 7.0 Q0.0 4.100530000000003 2.050265084 2.0502653639999995 Q4.100530000000003 0.0 7.0 0.0 Q9.89963156 0.0 11.949839999999998 2.050265084 Q14.0 4.1004818400000005 14.0 7.0 L14.0 7.0z" stroke="none"/><g transform="translate(1.9381599807739254 2.229080123901367)"><defs><clipPath id="id15"><path d="M0 0 L10.124799957275401 0 L10.124799957275401 9.477439880371092 L0 9.477439880371092z"/></clipPath></defs><text font-size="12" clip-path="url(#id15)" text-decoration="none" fill="#000000" font-family="Arial,Arial" font-style="normal" font-weight="normal"/></g></g><path fill="none" marker-end="url(#id16)" d="M84.62400000000008 21.48529411764703 Q83.21173148644594 24.84248466839687 81.54066666666682 25.779411764705856 Q78.36065673828125 27.56237030029297 74.79066467285156 26.27941131591797 Q71.28971862792969 25.021259307861328 70.1240005493164 21.808822631835938 Q68.48151397705078 17.282512664794922 70.95733642578125 14.308823585510254 Q74.21321868896484 10.398194313049316 79.54066467285156 11.720588684082031 Q82.66873843337375 12.497046320490394 86.20733333333342 18.308823529411733" stroke-width="4.0" stroke-linejoin="round" stroke="#999999"/></g><g transform="translate(85.9 129.0)"><defs><clipPath id="id17"><path d="M0 0 L416.0 0 L416.0 32.0 L0 32.0z"/></clipPath></defs><text font-size="24" clip-path="url(#id17)" text-decoration="none" fill="#000000" font-family="Arial,Arial" font-style="normal" font-weight="normal"><tspan x="2.0" xml:space="preserve" y="23.0" textLength="391.0">Multi screen resolution checker v.0.1</tspan></text></g><g transform="translate(108.0 235.0)"><path fill="#ffffff" fill-opacity="1.0" d="M3.0 0.0 L117.0 0.0 Q120.0 0.0 120.0 3.0 L120.0 17.0 Q120.0 20.0 117.0 20.0 L3.0 20.0 Q0.0 20.0 0.0 17.0 L0.0 3.0 Q0.0 0.0 3.0 0.0z" stroke-width="1.0" stroke-linejoin="round" stroke="#999999"/><g transform="translate(2.0 0.0)"><defs><clipPath id="id18"><path d="M0 0 L116.0 0 L116.0 20.0 L0 20.0z"/></clipPath></defs><text font-size="12" clip-path="url(#id18)" text-decoration="none" fill="#000000" font-family="&apos;Times New Roman&apos;,&apos;Times New Roman&apos;" font-style="normal" font-weight="normal"><tspan x="2.0" xml:space="preserve" y="14.5" textLength="110.0">ファイルが選択され…</tspan></text></g></g><g transform="translate(85.89999999999998 181.0)"><defs><clipPath id="id19"><path d="M0 0 L173.0 0 L173.0 24.0 L0 24.0z"/></clipPath></defs><text font-size="18" clip-path="url(#id19)" text-decoration="none" fill="#000000" font-family="Arial,Arial" font-style="normal" font-weight="normal"><tspan x="2.0" xml:space="preserve" y="19.0" textLength="72.0">1. Detect</tspan></text></g><g transform="translate(233.00000000000003 235.0)"><path fill="url(#id20)" d="M5.0 0.0 L43.0 0.0 Q48.0 0.0 48.0 5.0 L48.0 14.999999999999996 Q48.0 19.999999999999996 43.0 19.999999999999996 L5.0 19.999999999999996 Q0.0 19.999999999999996 0.0 14.999999999999996 L0.0 5.0 Q0.0 0.0 5.0 0.0 L5.0 0.0z" stroke-width="1.0" stroke-linejoin="round" stroke="#666666"/><g transform="translate(0.0 0.0)"><defs><clipPath id="id21"><path d="M0 0 L47.99999999999997 0 L47.99999999999997 20.0 L0 20.0z"/></clipPath></defs><text font-size="12" clip-path="url(#id21)" text-decoration="none" fill="#000000" font-family="Arial,Arial" font-style="normal" font-weight="normal"><tspan x="12.0" xml:space="preserve" y="14.5" textLength="24.0">参照</tspan></text></g></g><path fill="none" d="M85.89999999999998 204.9999995 L1005.9 204.9999995" stroke-width="1.0" stroke-linejoin="round" stroke="#cccccc"/><g transform="translate(108.0 205.0)"><defs><clipPath id="id22"><path d="M0 0 L198.0 0 L198.0 20.0 L0 20.0z"/></clipPath></defs><text font-size="14" clip-path="url(#id22)" text-decoration="none" fill="#000000" font-family="Arial,Arial" font-style="normal" font-weight="normal"><tspan x="2.0" xml:space="preserve" y="15.0" textLength="119.0">Upload target html.</tspan></text></g><g transform="translate(85.87599999999861 275.0)"><defs><clipPath id="id23"><path d="M0 0 L173.0 0 L173.0 24.0 L0 24.0z"/></clipPath></defs><text font-size="18" clip-path="url(#id23)" text-decoration="none" fill="#000000" font-family="Arial,Arial" font-style="normal" font-weight="normal"><tspan x="2.0" xml:space="preserve" y="19.0" textLength="165.0">2. Ditect Resolutions</tspan></text></g><path fill="none" d="M85.87599999999861 298.9999995 L1005.8759999999986 298.9999995" stroke-width="1.0" stroke-linejoin="round" stroke="#cccccc"/><g transform="translate(107.97599999999863 299.0)"><defs><clipPath id="id24"><path d="M0 0 L198.0 0 L198.0 20.0 L0 20.0z"/></clipPath></defs><text font-size="14" clip-path="url(#id24)" text-decoration="none" fill="#000000" font-family="Arial,Arial" font-style="normal" font-weight="normal"><tspan x="2.0" xml:space="preserve" y="15.0" textLength="94.0">change it later.</tspan></text></g><g transform="translate(106.97599999999863 329.0)"><path fill="#286bcc" fill-opacity="1.0" d="M174.02400000000137 18.0 L0.0 18.0 L0.0 0.0 L174.02400000000137 0.0 L174.02400000000137 18.0z" stroke="none"/><g transform="translate(1.0 1.0)"><defs><clipPath id="id25"><path d="M0 0 L172.02400000000137 0 L172.02400000000137 16.0 L0 16.0z"/></clipPath></defs><text font-size="12" clip-path="url(#id25)" text-decoration="none" fill="#ffffff" font-family="Arial,Arial" font-style="normal" font-weight="normal"><tspan x="2.0" xml:space="preserve" y="14.0" textLength="67.0">1280 x 1024</tspan></text></g></g><g transform="translate(106.97599999999863 347.0)"><path fill="#ffffff" fill-opacity="1.0" d="M174.02400000000137 18.0 L0.0 18.0 L0.0 0.0 L174.02400000000137 0.0 L174.02400000000137 18.0z" stroke="none"/><g transform="translate(1.0 1.0)"><defs><clipPath id="id26"><path d="M0 0 L172.02400000000137 0 L172.02400000000137 16.0 L0 16.0z"/></clipPath></defs><text font-size="12" clip-path="url(#id26)" text-decoration="none" fill="#000000" font-family="Arial,Arial" font-style="normal" font-weight="normal"><tspan x="2.0" xml:space="preserve" y="14.0" textLength="53.0">320 x 568</tspan></text></g></g><g transform="translate(137.98799999999932 429.0)"><path fill="url(#id27)" d="M5.0 0.0 L107.00000000000009 0.0 Q112.00000000000009 0.0 112.00000000000009 5.0 L112.00000000000009 14.999999999999996 Q112.00000000000009 19.999999999999996 107.00000000000009 19.999999999999996 L5.0 19.999999999999996 Q0.0 19.999999999999996 0.0 14.999999999999996 L0.0 5.0 Q0.0 0.0 5.0 0.0 L5.0 0.0z" stroke-width="1.0" stroke-linejoin="round" stroke="#666666"/><g transform="translate(0.0 0.0)"><defs><clipPath id="id28"><path d="M0 0 L112.00000000000003 0 L112.00000000000003 20.0 L0 20.0z"/></clipPath></defs><text font-size="12" clip-path="url(#id28)" text-decoration="none" fill="#000000" font-family="Arial,Arial" font-style="normal" font-weight="normal"><tspan x="12.0" xml:space="preserve" y="14.5" textLength="87.0">delete selection</tspan></text></g></g><g transform="translate(323.0 429.0)"><path fill="url(#id29)" d="M5.0 0.0 L125.00000000000003 0.0 Q130.00000000000003 0.0 130.00000000000003 5.0 L130.00000000000003 14.999999999999996 Q130.00000000000003 19.999999999999996 125.00000000000003 19.999999999999996 L5.0 19.999999999999996 Q0.0 19.999999999999996 0.0 14.999999999999996 L0.0 5.0 Q0.0 0.0 5.0 0.0 L5.0 0.0z" stroke-width="1.0" stroke-linejoin="round" stroke="#666666"/><g transform="translate(0.0 0.0)"><defs><clipPath id="id30"><path d="M0 0 L130.0 0 L130.0 20.0 L0 20.0z"/></clipPath></defs><text font-size="12" clip-path="url(#id30)" text-decoration="none" fill="#000000" font-family="Arial,Arial" font-style="normal" font-weight="normal"><tspan x="12.0" xml:space="preserve" y="14.5" textLength="105.0">add new resolution</tspan></text></g></g><path fill="none" d="M85.87599999999861 468.9999995 L123.75954426250121 468.9999995 L1005.8759999999986 468.9999995" stroke-width="1.0" stroke-linejoin="round" stroke="#cccccc"/><g transform="translate(106.97599999999863 365.0)"><path fill="#ffffff" fill-opacity="1.0" d="M174.02400000000137 18.0 L0.0 18.0 L0.0 0.0 L174.02400000000137 0.0 L174.02400000000137 18.0z" stroke="none"/><g transform="translate(1.0 1.0)"><defs><clipPath id="id31"><path d="M0 0 L172.02400000000137 0 L172.02400000000137 16.0 L0 16.0z"/></clipPath></defs><text font-size="12" clip-path="url(#id31)" text-decoration="none" fill="#000000" font-family="&apos;Times New Roman&apos;,&apos;Times New Roman&apos;" font-style="normal" font-weight="normal"/></g></g><g transform="translate(106.97599999999863 383.0)"><path fill="#ffffff" fill-opacity="1.0" d="M174.02400000000137 18.0 L0.0 18.0 L0.0 0.0 L174.02400000000137 0.0 L174.02400000000137 18.0z" stroke="none"/><g transform="translate(1.0 1.0)"><defs><clipPath id="id32"><path d="M0 0 L172.02400000000137 0 L172.02400000000137 16.0 L0 16.0z"/></clipPath></defs><text font-size="12" clip-path="url(#id32)" text-decoration="none" fill="#000000" font-family="&apos;Times New Roman&apos;,&apos;Times New Roman&apos;" font-style="normal" font-weight="normal"/></g></g><g transform="translate(106.97599999999863 489.0)"><path fill="url(#id33)" d="M5.0 0.0 L52.0 0.0 Q57.0 0.0 57.0 5.0 L57.0 14.999999999999996 Q57.0 19.999999999999996 52.0 19.999999999999996 L5.0 19.999999999999996 Q0.0 19.999999999999996 0.0 14.999999999999996 L0.0 5.0 Q0.0 0.0 5.0 0.0 L5.0 0.0z" stroke-width="1.0" stroke-linejoin="round" stroke="#666666"/><g transform="translate(0.0 0.0)"><defs><clipPath id="id34"><path d="M0 0 L57.0 0 L57.0 20.0 L0 20.0z"/></clipPath></defs><text font-size="12" clip-path="url(#id34)" text-decoration="none" fill="#000000" font-family="Arial,Arial" font-style="normal" font-weight="normal"><tspan x="11.0" xml:space="preserve" y="14.5" textLength="35.0">Check</tspan></text></g></g><g transform="translate(301.0 329.0)"><path fill="none" d="M174.0 89.99999999999999 L0.0 89.99999999999999 L0.0 0.0 L174.0 0.0 L174.0 89.99999999999999z" stroke="none"/><g transform="translate(1.0 1.0)"><defs><clipPath id="id35"><path d="M0 0 L172.0 0 L172.0 88.0 L0 88.0z"/></clipPath></defs><text font-size="12" clip-path="url(#id35)" text-decoration="none" fill="#000000" font-family="Arial,Arial" font-style="normal" font-weight="normal"/></g></g><g transform="translate(318.0 364.0)"><g transform="translate(0.0 0.0)"><path fill="#ffffff" fill-opacity="1.0" d="M3.0 0.0 L47.0 0.0 L47.0 20.0 L3.0 20.0 Q0.0 20.0 0.0 17.0 L0.0 3.0 Q0.0 0.0 3.0 0.0z" stroke-width="1.0" stroke-linejoin="round" stroke="#999999"/><g transform="translate(5.0 0.0)"><defs><clipPath id="id36"><path d="M0 0 L40.0 0 L40.0 20.0 L0 20.0z"/></clipPath></defs><text font-size="12" clip-path="url(#id36)" text-decoration="none" fill="#000000" font-family="Arial,Arial" font-style="normal" font-weight="normal"><tspan x="16.0" xml:space="preserve" y="14.5" textLength="21.0">100</tspan></text></g><path fill="url(#id37)" d="M57.0 0.0 Q60.0 0.0 60.0 3.0 L60.0 9.0 L49.0 9.0 L49.0 3.0 Q49.0 0.0 52.0 0.0 L57.0 0.0z" stroke-width="1.0" stroke-linejoin="round" stroke="#999999"/><path fill="url(#id38)" d="M52.0 20.0 Q49.0 20.0 49.0 17.0 L49.0 11.0 L60.0 11.0 L60.0 17.0 Q60.0 20.0 57.0 20.0 L52.0 20.0z" stroke-width="1.0" stroke-linejoin="round" stroke="#999999"/><path fill="url(#id39)" d="M55.0 3.0 L58.0 7.0 L52.0 7.0 L55.0 3.0z" stroke="none"/><path fill="url(#id40)" d="M52.0 14.0 L58.0 14.0 L55.0 18.0 L52.0 14.0z" stroke="none"/></g><g transform="translate(80.0 0.0)"><path fill="#ffffff" fill-opacity="1.0" d="M3.0 0.0 L47.0 0.0 L47.0 20.0 L3.0 20.0 Q0.0 20.0 0.0 17.0 L0.0 3.0 Q0.0 0.0 3.0 0.0z" stroke-width="1.0" stroke-linejoin="round" stroke="#999999"/><g transform="translate(5.0 0.0)"><defs><clipPath id="id41"><path d="M0 0 L40.0 0 L40.0 20.0 L0 20.0z"/></clipPath></defs><text font-size="12" clip-path="url(#id41)" text-decoration="none" fill="#000000" font-family="Arial,Arial" font-style="normal" font-weight="normal"><tspan x="16.0" xml:space="preserve" y="14.5" textLength="21.0">100</tspan></text></g><path fill="url(#id42)" d="M57.0 0.0 Q60.0 0.0 60.0 3.0 L60.0 9.0 L49.0 9.0 L49.0 3.0 Q49.0 0.0 52.0 0.0 L57.0 0.0z" stroke-width="1.0" stroke-linejoin="round" stroke="#999999"/><path fill="url(#id43)" d="M52.0 20.0 Q49.0 20.0 49.0 17.0 L49.0 11.0 L60.0 11.0 L60.0 17.0 Q60.0 20.0 57.0 20.0 L52.0 20.0z" stroke-width="1.0" stroke-linejoin="round" stroke="#999999"/><path fill="url(#id44)" d="M55.0 3.0 L58.0 7.0 L52.0 7.0 L55.0 3.0z" stroke="none"/><path fill="url(#id45)" d="M52.0 14.0 L58.0 14.0 L55.0 18.0 L52.0 14.0z" stroke="none"/></g><g transform="translate(65.0 0.0)"><defs><clipPath id="id46"><path d="M0 0 L10.0 0 L10.0 20.0 L0 20.0z"/></clipPath></defs><text font-size="14" clip-path="url(#id46)" text-decoration="none" fill="#000000" font-family="Arial,Arial" font-style="normal" font-weight="normal"><tspan x="2.0" xml:space="preserve" y="15.0" textLength="6.0">x</tspan></text></g></g><g transform="translate(106.97599999999863 401.0)"><path fill="#ffffff" fill-opacity="1.0" d="M174.02400000000137 18.0 L0.0 18.0 L0.0 0.0 L174.02400000000137 0.0 L174.02400000000137 18.0z" stroke="none"/><g transform="translate(1.0 1.0)"><defs><clipPath id="id47"><path d="M0 0 L172.02400000000137 0 L172.02400000000137 16.0 L0 16.0z"/></clipPath></defs><text font-size="12" clip-path="url(#id47)" text-decoration="none" fill="#000000" font-family="&apos;Times New Roman&apos;,&apos;Times New Roman&apos;" font-style="normal" font-weight="normal"/></g></g><g transform="translate(106.97599999999863 329.0)"><path fill="none" d="M174.02400000000134 90.00000000000001 L0.0 90.00000000000001 L0.0 0.0 L174.02400000000134 0.0 L174.02400000000134 90.00000000000001z" stroke-width="1.0" stroke-linejoin="round" stroke="#999999"/><g transform="translate(1.0 1.0)"><defs><clipPath id="id48"><path d="M0 0 L172.02400000000137 0 L172.02400000000137 88.0 L0 88.0z"/></clipPath></defs><text font-size="12" clip-path="url(#id48)" text-decoration="none" fill="#000000" font-family="Arial,Arial" font-style="normal" font-weight="normal"/></g></g></g></svg>