<?xml version="1.0" encoding="utf-8"?>
<svg contentScriptType="text/ecmascript" xmlns:xlink="http://www.w3.org/1999/xlink" zoomAndPan="magnify" contentStyleType="text/css" width="24" height="48" xmlns:cacoo="http://cacoo.com/" preserveAspectRatio="xMidYMin meet" xmlns="http://www.w3.org/2000/svg" version="1.1"><g><g transform="translate(3.5 5.999999750000001)"><path fill="none" d="M16.999999999999996 10.000000000000004 L2.0 10.000000000000004 L2.0 0.0 L16.999999999999996 0.0 L16.999999999999996 10.000000000000004z" stroke-width="2.0" stroke-linejoin="round" stroke="#bbbbbb"/><path fill="#bbbbbb" fill-opacity="1.0" d="M11.00000000000001 4.7335136230166714 L8.000000000000014 2.601622607150011 L4.0 7.931350146816657 L8.000000000000014 5.26648637698333 L11.00000000000001 7.398377392849997 L15.000000000000016 2.068649853183345 L11.00000000000001 4.7335136230166714z" stroke="none"/><path fill="none" d="M5.0 11.999999500000001 L14.000000000000004 11.999999500000001" stroke-width="2.0" stroke-linejoin="round" stroke="#bbbbbb"/><path fill="#5d5f60" fill-opacity="1.0" d="M4.0 11.0 L0.0 11.0 L0.0 5.0 L4.0 5.0 L4.0 11.0z" stroke-width="2.0" stroke-linejoin="round" stroke="#bbbbbb"/></g><g transform="translate(3.5 29.99999975)"><path fill="none" d="M16.999999999999996 10.000000000000004 L2.0 10.000000000000004 L2.0 0.0 L16.999999999999996 0.0 L16.999999999999996 10.000000000000004z" stroke-width="2.0" stroke-linejoin="round" stroke="#bbbbbb"/><path fill="#fbb03b" fill-opacity="1.0" d="M11.00000000000001 4.7335136230166714 L8.000000000000014 2.601622607150011 L4.0 7.931350146816657 L8.000000000000014 5.26648637698333 L11.00000000000001 7.398377392849997 L15.000000000000016 2.068649853183345 L11.00000000000001 4.7335136230166714z" stroke="none"/><path fill="none" d="M5.0 11.999999500000001 L14.000000000000004 11.999999500000001" stroke-width="2.0" stroke-linejoin="round" stroke="#bbbbbb"/><path fill="#5d5f60" fill-opacity="1.0" d="M4.0 11.0 L0.0 11.0 L0.0 5.0 L4.0 5.0 L4.0 11.0z" stroke-width="2.0" stroke-linejoin="round" stroke="#bbbbbb"/></g></g></svg>
